<svg xmlns="http://www.w3.org/2000/svg" viewBox="0 0 878.96 878.96"><title>資產 2</title><g id="圖層_2" data-name="圖層 2"><g id="圖層_1-2" data-name="圖層 1"><path d="M274.41,0l1.64.53c.55.18,1.12.36,1.59.54l2.94,1.07,2.94,1.07.74.27.66.26,1.34.54,2.66,1.07,2.48,1.07c1.63.71,3.33,1.43,4.78,2.14l4.49,2.14,4.12,2.14c.67.36,1.39.71,2,1.07L308.73,15c1.3.71,2.42,1.43,3.65,2.14a95.12,95.12,0,0,1,21.48,17.12A45,45,0,0,1,344,51.36c.45,1.42.74,2.85,1.06,4.28s.6,2.85.86,4.28q.82,4.28,1.4,8.56a132.6,132.6,0,0,1,.37,34.24A176.52,176.52,0,0,1,339.51,137c-3.85,11.42-8.21,22.83-12.37,34.24l-1.58,4.28-1.51,4.28c-1,2.86-2,5.71-3,8.56-1.92,5.71-3.65,11.42-5.77,17.12a227.59,227.59,0,0,1-16,34.24c-1.65,2.85-3.35,5.71-5.18,8.56s-3.72,5.71-5.78,8.56a148.13,148.13,0,0,1-14,17.12h-1a147.09,147.09,0,0,1-14-17.12c-2.07-2.85-3.91-5.71-5.79-8.56s-3.52-5.71-5.17-8.56a227.59,227.59,0,0,1-16-34.24c-2.12-5.7-3.85-11.41-5.77-17.12-.95-2.85-2-5.7-3-8.56l-1.5-4.28-1.58-4.28c-4.16-11.41-8.53-22.82-12.38-34.24a175.76,175.76,0,0,1-8.16-34.23,132.6,132.6,0,0,1,.37-34.24c.38-2.86.85-5.71,1.39-8.56.27-1.43.57-2.86.87-4.28s.61-2.86,1-4.28A45.18,45.18,0,0,1,214,34.24a95,95,0,0,1,21.49-17.12c1.22-.71,2.35-1.43,3.65-2.14L241,13.91c.64-.36,1.36-.71,2-1.07l4.12-2.14,4.49-2.14c1.45-.71,3.15-1.43,4.78-2.14l2.48-1.07,2.66-1.07,1.33-.54.67-.26.74-.27,2.94-1.07,2.94-1.07c.47-.18,1-.36,1.58-.54L273.41,0Z" style="fill:#39b54a"/><path d="M0,273.41l.53-1.65c.18-.54.36-1.11.54-1.58l1.07-2.94,1.07-2.94.27-.74.26-.67.54-1.33,1.07-2.66,1.07-2.48c.71-1.63,1.43-3.33,2.14-4.78l2.14-4.49L12.84,243c.36-.67.71-1.39,1.07-2L15,239.09c.71-1.3,1.43-2.43,2.14-3.65A95,95,0,0,1,34.24,214a45.18,45.18,0,0,1,17.12-10.13c1.42-.44,2.85-.74,4.28-1s2.85-.6,4.28-.87c2.85-.54,5.7-1,8.56-1.39a132.6,132.6,0,0,1,34.24-.37A175.76,175.76,0,0,1,137,208.3c11.42,3.85,22.83,8.22,34.24,12.38l4.28,1.58,4.28,1.5c2.86,1,5.71,2,8.56,3,5.71,1.92,11.42,3.65,17.12,5.77a227.59,227.59,0,0,1,34.24,16c2.85,1.65,5.71,3.35,8.56,5.17s5.71,3.72,8.56,5.79a147.09,147.09,0,0,1,17.12,14v1a148.13,148.13,0,0,1-17.12,14c-2.85,2.06-5.71,3.91-8.56,5.78s-5.71,3.53-8.56,5.18a227.59,227.59,0,0,1-34.24,16c-5.7,2.12-11.41,3.85-17.12,5.77-2.85.94-5.7,2-8.56,3l-4.28,1.51-4.28,1.58c-11.41,4.16-22.82,8.52-34.24,12.37a176.52,176.52,0,0,1-34.23,8.17,132.6,132.6,0,0,1-34.24-.37q-4.29-.57-8.56-1.4c-1.43-.26-2.86-.56-4.28-.86s-2.86-.61-4.28-1.06a45,45,0,0,1-17.12-10.13,95.12,95.12,0,0,1-17.12-21.48c-.71-1.23-1.43-2.35-2.14-3.65l-1.07-1.91c-.36-.64-.71-1.36-1.07-2l-2.14-4.12-2.14-4.49c-.71-1.45-1.43-3.15-2.14-4.78l-1.07-2.48-1.07-2.66-.54-1.34-.26-.66-.27-.74-1.07-2.94-1.07-2.94c-.18-.47-.36-1-.54-1.59L0,274.41Z" style="fill:#39b54a"/><path d="M23.43,22.72c4.48-1.86,8.48-3.25,12.3-4.46l2.86-.9,2.73-.77c1.81-.5,3.66-1.05,5.34-1.42l5.14-1.23c1.65-.33,3.32-.7,4.9-1,3.22-.61,6.26-1,9.25-1.42A104.3,104.3,0,0,1,96.82,12a64.07,64.07,0,0,1,22.85,8.51c6.27,4.17,12.24,8.66,18,13.33A220.74,220.74,0,0,1,169.29,65a281.92,281.92,0,0,1,25.59,37.11c7.73,13.18,15.1,26.71,22.6,40.11l2.81,5,2.85,5c1.91,3.32,3.8,6.66,5.76,9.92,3.87,6.58,7.85,13,11.58,19.77a341.68,341.68,0,0,1,20.07,42.64c1.44,3.79,2.85,7.6,4.17,11.5s2.6,7.86,3.75,11.93a189.78,189.78,0,0,1,5.79,25.57l-.7.7A189.78,189.78,0,0,1,248,268.47c-4.07-1.15-8-2.46-11.93-3.75s-7.71-2.73-11.5-4.17a341.68,341.68,0,0,1-42.64-20.07c-6.72-3.73-13.19-7.71-19.77-11.58-3.26-2-6.6-3.85-9.92-5.76l-5-2.85-5-2.81c-13.4-7.5-26.93-14.87-40.11-22.6A281.92,281.92,0,0,1,65,169.29a220.74,220.74,0,0,1-31.11-31.6c-4.67-5.78-9.16-11.75-13.33-18A64.07,64.07,0,0,1,12,96.82,104.3,104.3,0,0,1,11.55,66c.38-3,.81-6,1.42-9.25.27-1.58.64-3.25,1-4.9l1.23-5.14c.37-1.68.92-3.53,1.42-5.34l.77-2.73.9-2.86c1.21-3.82,2.6-7.82,4.46-12.3Z" style="fill:#00f444"/><path d="M865.05,877.77a136.47,136.47,0,0,1-21.51,1.17l-4.9-.19c-1.65,0-3.17-.22-4.76-.32-3.19-.2-6.22-.56-9.22-.95a159.42,159.42,0,0,1-32.75-7.93,144.23,144.23,0,0,1-14.34-6l-13.63-6.7-27.26-13.42c-36.3-17.94-72.84-35.63-108.7-54s-71-37.48-104.67-58S457.22,689,425.82,666.17c-15.75-11.38-31-23.21-46.79-34.57S347.44,609,331.61,597.67c-31.68-22.56-63-45.48-89.92-72.79a356.76,356.76,0,0,1-37.18-44.18,422.88,422.88,0,0,1-30.75-50.6c-4.66-8.9-9.07-18.05-13.3-27.38-1-2.36-2.17-4.61-3.05-7.12a49.93,49.93,0,0,1-2.09-8.08,65.51,65.51,0,0,1-.93-9.23,85.25,85.25,0,0,1,.28-10.46c.31-3.7.81-7.59,1.56-11.73l1.27-6.35,1.64-6.72,2-7.08,2.36-7.44c.93-2.62,1.79-5.19,2.77-7.86l1.55-4.09.78-2.05.85-2.12,1.73-4.27.43-1.07.5-1.14,1-2.27,4-9.08c.61-1.46,1.49-3.18,2.25-4.79l2.35-4.9,2.36-4.9,2.7-5.24,2.71-5.25c.47-.9.86-1.71,1.4-2.67l1.52-2.8,3.06-5.6c.53-1,1-1.83,1.57-2.84l1.7-3,3.4-5.95,3.87-6.4,3.89-6.43,1-1.61,1.12-1.76,2.24-3.51,12.73-12.73,3.51-2.24,1.76-1.12,1.61-1,6.43-3.89,6.4-3.87,5.95-3.4,3-1.7c1-.59,1.89-1,2.84-1.57l5.6-3.06,2.8-1.52c1-.54,1.77-.93,2.67-1.4l5.25-2.71,5.24-2.7,4.9-2.36,4.9-2.35c1.61-.76,3.33-1.64,4.79-2.25l9.08-4,2.27-1,1.14-.5,1.07-.43,4.27-1.73,2.12-.85,2.05-.78,4.09-1.55c2.67-1,5.24-1.84,7.86-2.77l7.44-2.36,7.08-2,6.72-1.64,6.35-1.27c4.14-.75,8-1.25,11.73-1.56a85.25,85.25,0,0,1,10.46-.28,65.51,65.51,0,0,1,9.23.93,49.93,49.93,0,0,1,8.08,2.09c2.51.88,4.76,2,7.12,3.05,9.33,4.23,18.48,8.64,27.38,13.3a422.88,422.88,0,0,1,50.6,30.75,356.76,356.76,0,0,1,44.18,37.18c27.31,26.92,50.23,58.24,72.79,89.92C609,347.44,620.2,363.32,631.6,379s23.19,31,34.57,46.79c22.84,31.4,44.69,63.78,65.21,97.49s39.7,68.78,58,104.67,36.07,72.4,54,108.7l13.42,27.26,6.7,13.63a144.23,144.23,0,0,1,6,14.34,159.42,159.42,0,0,1,7.93,32.75c.39,3,.75,6,.95,9.22.1,1.59.28,3.11.32,4.76l.19,4.9a136.47,136.47,0,0,1-1.17,21.51Z" style="fill:#f15a24"/></g></g></svg>